<svg width="52" height="35" viewBox="0 0 52 35" fill="none" xmlns="http://www.w3.org/2000/svg">
<path d="M5.17444 10.122C6.42461 10.0999 7.62308 9.63407 8.5431 8.81263C9.46313 7.9912 10.0409 6.87114 10.1671 5.66436H20.7375V6.44128C17.6897 7.49345 15.0527 9.43583 13.1894 12.0013C11.326 14.5667 10.3277 17.6292 10.3318 20.7675V24.7733H5.95259V35H16.4946V24.7733H11.4678V20.7565C11.4668 17.9154 12.3516 15.1404 14.006 12.7961C15.6603 10.4517 18.0069 8.64749 20.7375 7.62043V10.2267H31.2795V7.61492C34.0138 8.63842 36.3636 10.4425 38.0186 12.7888C39.6737 15.1352 40.5561 17.9134 40.5492 20.7565V24.7733H35.5168V35H46.0644V24.7733H41.6852V20.7565C41.6951 17.6168 40.6992 14.5518 38.835 11.9852C36.9708 9.41871 34.3306 7.47755 31.2795 6.43026V5.66436H41.7136C41.892 6.91042 42.5467 8.04589 43.5478 8.84552C44.549 9.64515 45.8234 10.0505 47.1182 9.98113C48.413 9.91177 49.6337 9.37278 50.538 8.47108C51.4423 7.56939 51.9641 6.37089 52 5.11335C51.9641 3.85581 51.4423 2.65731 50.538 1.75562C49.6337 0.853923 48.413 0.314929 47.1182 0.245569C45.8234 0.176209 44.549 0.581552 43.5478 1.38118C42.5467 2.1808 41.892 3.31628 41.7136 4.56234H31.2795V0H20.7375V4.56234H10.1671C10.0407 3.3537 9.46126 2.23214 8.53886 1.41045C7.61646 0.588768 6.41522 0.124128 5.16308 0.104692C3.79375 0.104692 2.4805 0.632388 1.51223 1.57169C0.543966 2.511 0 3.78497 0 5.11335C0 6.44173 0.543966 7.7157 1.51223 8.65501C2.4805 9.59431 3.79375 10.122 5.16308 10.122H5.17444ZM15.3586 33.898H7.08858V25.8753H15.3586V33.898ZM44.9228 33.898H36.6528V25.8753H44.9285L44.9228 33.898ZM46.8369 1.33344C47.6029 1.35725 48.3447 1.59933 48.9697 2.02948C49.5948 2.45964 50.0754 3.05882 50.3517 3.75227C50.628 4.44572 50.6876 5.20274 50.5233 5.92887C50.3589 6.65501 49.9777 7.31812 49.4274 7.83546C48.877 8.3528 48.1818 8.70148 47.4284 8.83798C46.6751 8.97449 45.897 8.89278 45.1912 8.60305C44.4855 8.31332 43.8833 7.8284 43.4598 7.20878C43.0363 6.58917 42.8102 5.8623 42.8098 5.11886C42.8293 4.09973 43.2637 3.12949 44.0183 2.42018C44.7729 1.71087 45.7863 1.32016 46.8369 1.33344ZM21.8451 1.10202H30.1435V9.12468H21.8735L21.8451 1.10202ZM5.15172 1.20671C6.21977 1.20671 7.24408 1.6183 7.9993 2.35094C8.75453 3.08357 9.17881 4.07724 9.17881 5.11335C9.17881 6.14946 8.75453 7.14313 7.9993 7.87576C7.24408 8.6084 6.21977 9.01999 5.15172 9.01999C4.08367 9.01999 3.05936 8.6084 2.30414 7.87576C1.54891 7.14313 1.12463 6.14946 1.12463 5.11335C1.12463 4.07724 1.54891 3.08357 2.30414 2.35094C3.05936 1.6183 4.08367 1.20671 5.15172 1.20671Z" fill="black"/>
</svg>
