<svg width="32" height="44" viewBox="0 0 32 44" fill="none" xmlns="http://www.w3.org/2000/svg">
<path d="M16.0007 1C13.4738 0.998326 10.9875 1.64399 8.7728 2.87698C6.5581 4.10998 4.68691 5.8903 3.33308 8.05252C1.97926 10.2147 1.18674 12.6887 1.02918 15.2444C0.87161 17.8002 1.35411 20.3549 2.43184 22.671C2.72909 23.291 3.0701 23.8884 3.45221 24.4586L15.4905 42.725C15.5462 42.809 15.6213 42.878 15.7092 42.9259C15.7972 42.9738 15.8954 42.9993 15.9953 43V43C16.0961 43.0002 16.1953 42.9752 16.2843 42.9272C16.3733 42.8792 16.4493 42.8098 16.5055 42.725L28.4461 24.5741C28.8889 23.9308 29.2827 23.2541 29.6238 22.55C30.6767 20.2347 31.1377 17.6881 30.9644 15.1449C30.791 12.6016 29.9889 10.1434 28.6319 7.99682C27.2749 5.85021 25.4066 4.08419 23.1992 2.86145C20.9919 1.63871 18.5163 0.99857 16.0007 1V1ZM16.0007 25.5092C14.1758 25.5092 12.3919 24.9608 10.8745 23.9333C9.3572 22.9059 8.17458 21.4456 7.47622 19.737C6.77787 18.0284 6.59514 16.1484 6.95116 14.3345C7.30718 12.5207 8.18595 10.8546 9.47634 9.54696C10.7667 8.23928 12.4108 7.34873 14.2006 6.98795C15.9905 6.62716 17.8457 6.81233 19.5316 7.52004C21.2176 8.22775 22.6587 9.42622 23.6725 10.9639C24.6864 12.5016 25.2275 14.3094 25.2275 16.1587C25.2275 18.6386 24.2554 21.0169 22.525 22.7705C20.7947 24.524 18.4478 25.5092 16.0007 25.5092V25.5092Z" stroke="black" stroke-width="1.2"/>
</svg>
