<svg width="20" height="18" viewBox="0 0 20 18" fill="none" xmlns="http://www.w3.org/2000/svg">
<path d="M15.1619 0.755271L15.1616 0.755253C14.095 0.699388 13.109 1.09139 12.3717 1.8166L12.3717 1.81657L12.3684 1.81994L10.3026 3.93003L5.15071 9.19227C4.67035 9.68293 4.41623 10.3193 4.41623 11.0084C4.41623 11.6974 4.67035 12.3338 5.15071 12.8244C5.63232 13.3164 6.28376 13.5769 6.93611 13.5769C7.58847 13.5769 8.23991 13.3164 8.72152 12.8244L14.3324 7.09329C14.5296 6.8919 14.5296 6.58019 14.3324 6.3788C14.1324 6.17446 13.8182 6.17446 13.6181 6.3788L8.00718 12.1099C7.41472 12.7151 6.45643 12.7101 5.89382 12.1133L5.89385 12.1133L5.89056 12.1099C5.60636 11.8197 5.45183 11.4403 5.45183 11.0084C5.45183 10.6006 5.60763 10.1958 5.89056 9.90677L11.2464 4.43613L13.0827 2.56048C13.5921 2.0402 14.3116 1.75367 15.108 1.80152C15.913 1.84989 16.6709 2.18788 17.2652 2.79493C18.4857 4.0416 18.5589 5.97043 17.4938 7.08314C17.4935 7.08346 17.4932 7.08378 17.4929 7.0841L13.2611 11.4066L9.9455 14.7932C9.04796 15.7099 7.83675 16.229 6.55355 16.229C5.27035 16.229 4.05915 15.7099 3.1616 14.7932C1.29292 12.8844 1.29292 9.75748 3.1616 7.84876L8.26245 2.63863L8.08381 2.46374L8.26245 2.63863C8.45961 2.43725 8.45961 2.12552 8.26245 1.92413L8.08963 2.09332L8.26245 1.92413C8.06239 1.71979 7.74817 1.71979 7.54811 1.92413L2.44725 7.13426C0.184249 9.44575 0.184249 13.1962 2.44725 15.5077C3.59204 16.677 5.05965 17.25 6.55355 17.25C8.04522 17.25 9.5397 16.6785 10.6608 15.5066L13.9244 12.1732L18.2091 7.79666L18.2091 7.79669L18.2122 7.79339C19.6921 6.22588 19.5672 3.67605 17.9796 2.05438C17.197 1.25505 16.1947 0.810794 15.1619 0.755271Z" fill="#FF6F53" stroke="#FF6F53" stroke-width="0.5"/>
</svg>
