<svg width="30" height="30" viewBox="0 0 30 30" fill="none" xmlns="http://www.w3.org/2000/svg">
<circle cx="15" cy="15" r="15" fill="black"/>
<path d="M17.86 13.3H18.88C18.8133 12.82 18.6733 12.3933 18.46 12.02C18.2467 11.6333 17.9733 11.3133 17.64 11.06C17.3067 10.8067 16.9267 10.6133 16.5 10.48C16.0867 10.3467 15.6467 10.28 15.18 10.28C14.5 10.28 13.8867 10.3933 13.34 10.62C12.8067 10.8467 12.3533 11.1667 11.98 11.58C11.62 11.9933 11.34 12.48 11.14 13.04C10.94 13.5867 10.84 14.1933 10.84 14.86C10.84 15.5133 10.94 16.12 11.14 16.68C11.34 17.24 11.62 17.7267 11.98 18.14C12.3533 18.5533 12.8067 18.8733 13.34 19.1C13.8867 19.3267 14.5 19.44 15.18 19.44C15.6467 19.44 16.0867 19.3733 16.5 19.24C16.9267 19.1067 17.3067 18.9133 17.64 18.66C17.9733 18.4067 18.2467 18.0933 18.46 17.72C18.6733 17.3333 18.8133 16.9 18.88 16.42H17.86C17.74 17.02 17.4467 17.5267 16.98 17.94C16.5267 18.34 15.9333 18.54 15.2 18.54C14.6667 18.54 14.1933 18.4467 13.78 18.26C13.3667 18.0733 13.02 17.8133 12.74 17.48C12.46 17.1467 12.2467 16.76 12.1 16.32C11.9667 15.8667 11.9 15.38 11.9 14.86C11.9 14.34 11.9667 13.86 12.1 13.42C12.2467 12.9667 12.46 12.5733 12.74 12.24C13.02 11.9067 13.3667 11.6467 13.78 11.46C14.1933 11.2733 14.6667 11.18 15.2 11.18C15.9333 11.1933 16.5267 11.4 16.98 11.8C17.4467 12.2 17.74 12.7 17.86 13.3ZM21.28 14.86C21.28 15.7533 21.12 16.5867 20.8 17.36C20.48 18.1333 20.04 18.8067 19.48 19.38C18.92 19.9533 18.2533 20.4067 17.48 20.74C16.72 21.0733 15.8933 21.24 15 21.24C14.0933 21.24 13.2533 21.0733 12.48 20.74C11.72 20.4067 11.06 19.9533 10.5 19.38C9.94 18.8067 9.5 18.1333 9.18 17.36C8.87333 16.5867 8.72 15.7533 8.72 14.86C8.72 13.9667 8.87333 13.1333 9.18 12.36C9.5 11.5867 9.94 10.9133 10.5 10.34C11.06 9.76667 11.72 9.31333 12.48 8.98C13.2533 8.64667 14.0933 8.48 15 8.48C15.8933 8.48 16.72 8.64667 17.48 8.98C18.2533 9.31333 18.92 9.76667 19.48 10.34C20.04 10.9133 20.48 11.5867 20.8 12.36C21.12 13.1333 21.28 13.9667 21.28 14.86ZM22.44 14.86C22.44 13.82 22.2467 12.8467 21.86 11.94C21.4867 11.0333 20.9667 10.2467 20.3 9.58C19.6333 8.9 18.8467 8.37333 17.94 8C17.0333 7.61333 16.0533 7.42 15 7.42C13.9467 7.42 12.9667 7.61333 12.06 8C11.1533 8.37333 10.3667 8.9 9.7 9.58C9.03333 10.2467 8.50667 11.0333 8.12 11.94C7.74667 12.8467 7.56 13.82 7.56 14.86C7.56 15.9133 7.74667 16.8933 8.12 17.8C8.50667 18.6933 9.03333 19.4733 9.7 20.14C10.3667 20.8067 11.1533 21.3333 12.06 21.72C12.9667 22.0933 13.9467 22.28 15 22.28C16.0533 22.28 17.0333 22.0933 17.94 21.72C18.8467 21.3333 19.6333 20.8067 20.3 20.14C20.9667 19.4733 21.4867 18.6933 21.86 17.8C22.2467 16.8933 22.44 15.9133 22.44 14.86Z" fill="white"/>
</svg>
