<svg width="18" height="17" viewBox="0 0 18 17" fill="none" xmlns="http://www.w3.org/2000/svg">
<path fill-rule="evenodd" clip-rule="evenodd" d="M15.3705 1.0836C14.7092 1.36935 7.25399 4.68404 1.18162 7.37008C0.700637 7.59868 0.400024 8.05588 0.400024 8.51308C0.400024 8.97028 0.760759 9.31318 1.18162 9.37033C1.54235 9.42747 5.1497 9.94182 5.1497 9.94182L6.17178 15.6568L6.71288 13.1422L5.93129 9.37033L13.2662 4.22684L7.25399 10.5133L9.35827 12.7993C9.47852 12.9136 12.0638 15.7711 12.2442 15.9426C12.5448 16.2283 13.0257 16.7998 13.2662 16.7998C13.6871 16.7998 14.1079 16.2283 14.2883 15.3711C14.4687 14.571 15.6711 9.02743 17.1742 1.65509C17.3546 0.854997 16.573 0.512098 15.3705 1.0836Z" fill="white"/>
</svg>
