<svg width="17" height="17" viewBox="0 0 17 17" fill="none" xmlns="http://www.w3.org/2000/svg">
<path fill-rule="evenodd" clip-rule="evenodd" d="M8.4 0C3.75707 0 0 3.75498 0 8.4C0 10.1518 0.534211 11.7721 1.48313 13.1644C1.51845 13.2167 1.54151 13.2764 1.5506 13.3388C1.55969 13.4013 1.55457 13.4651 1.53563 13.5253L0.6825 16.38L3.47812 15.4153C3.53788 15.3954 3.60135 15.3892 3.66383 15.3972C3.72631 15.4051 3.78619 15.427 3.83906 15.4612C5.14853 16.3109 6.71613 16.8 8.4 16.8C13.0451 16.8 16.8 13.0451 16.8 8.4C16.8 3.75486 13.0451 0 8.4 0ZM4.96125 3.66187L6.49031 6.18845L5.85375 6.81845C5.78894 6.88384 5.74741 6.96871 5.73556 7.06001C5.7237 7.15131 5.74217 7.24397 5.78813 7.32375C6.75955 9.00598 7.91053 10.3147 9.52219 11.025C9.59942 11.0593 9.6852 11.0695 9.76833 11.0543C9.85145 11.0391 9.92806 10.9991 9.98812 10.9397L10.6641 10.2638L13.1316 11.806C12.8583 12.4209 12.5021 12.787 12.0947 13.0003C11.6227 13.2474 11.0463 13.2942 10.3884 13.1578C9.07276 12.885 7.48353 11.851 6.18844 10.5262C4.89334 9.20155 3.89112 7.59072 3.63562 6.2803C3.50788 5.6251 3.56431 5.06083 3.80625 4.61345C4.01457 4.22825 4.36842 3.89846 4.96125 3.66187Z" fill="white"/>
</svg>
