<svg width="40" height="57" viewBox="0 0 40 57" fill="none" xmlns="http://www.w3.org/2000/svg">
<path d="M20.0009 4.4229e-06C16.6317 -0.00227168 13.3166 0.87398 10.3637 2.54733C7.41081 4.22069 4.91587 6.63684 3.11078 9.57127C1.30568 12.5057 0.248988 15.8632 0.0389003 19.3317C-0.171187 22.8003 0.472146 26.2673 1.90912 29.4107C2.30546 30.2521 2.76014 31.0628 3.26962 31.8367L19.3207 56.6268C19.3949 56.7408 19.495 56.8344 19.6123 56.8995C19.7296 56.9645 19.8605 56.999 19.9937 57C20.1281 57.0002 20.2605 56.9663 20.3791 56.9012C20.4978 56.8361 20.599 56.7418 20.6739 56.6268L36.5947 31.9935C37.1852 31.1204 37.7102 30.202 38.1651 29.2465C39.5689 26.1043 40.1836 22.6482 39.9525 19.1966C39.7214 15.745 38.6518 12.4089 36.8425 9.49569C35.0332 6.58243 32.5422 4.18569 29.599 2.52626C26.6558 0.866821 23.3551 -0.00194077 20.0009 4.4229e-06ZM20.0009 33.2624C17.5677 33.2624 15.1892 32.5182 13.1661 31.1238C11.1429 29.7294 9.5661 27.7475 8.63496 25.4288C7.70382 23.11 7.46019 20.5585 7.93488 18.0969C8.40957 15.6353 9.58127 13.3742 11.3018 11.5994C13.0223 9.82473 15.2144 8.61614 17.6008 8.1265C19.9873 7.63685 22.4609 7.88816 24.7089 8.84862C26.9568 9.80909 28.8782 11.4356 30.23 13.5224C31.5818 15.6093 32.3034 18.0627 32.3034 20.5726C32.3034 23.9381 31.0072 27.1658 28.7001 29.5457C26.3929 31.9255 23.2637 33.2624 20.0009 33.2624Z" fill="#6E9DB4"/>
</svg>
