<svg width="45" height="70" viewBox="0 0 45 70" fill="none" xmlns="http://www.w3.org/2000/svg">
<path d="M2.94773 69.2804L2.98321 69.2804L3.02804 69.229C4.03894 68.0704 5.23539 67.0317 6.58461 66.1419L6.58469 66.142L6.59015 66.1381L6.6058 66.1267C9.22597 64.2248 12.0118 62.2025 12.0118 58.1632C12.0118 54.1239 9.22597 52.1017 6.60581 50.1997L6.59015 50.1884C3.94755 48.2701 1.64472 46.5907 1.64472 43.1137C1.64473 39.6367 4.00992 37.8878 6.5894 36.0395C9.15283 34.2026 12.0118 32.1115 12.0118 28.0641C12.0118 24.0423 9.2499 22.0285 6.64017 20.1257L6.59041 20.0894L6.5713 20.0755C3.93626 18.1541 1.64473 16.4831 1.64473 13.0145C1.64473 9.53926 3.99691 7.81657 6.58624 5.94259C8.3915 4.79764 9.90102 3.3573 11.0217 1.70782L11.022 1.70801L11.0271 1.69936C11.1108 1.55657 11.1239 1.38841 11.061 1.23549C10.9989 1.08444 10.8713 0.968507 10.7159 0.905133C10.5606 0.841777 10.3833 0.832846 10.2213 0.87927C10.0611 0.925129 9.92113 1.02381 9.83813 1.1622C8.80265 2.67268 7.40809 3.99339 5.738 5.04267L5.73782 5.04239L5.72968 5.04829L5.7139 5.05975C3.09388 6.96161 0.308018 8.98385 0.308018 13.0145C0.308018 17.0361 3.08149 19.0584 5.69617 20.9649L5.72942 20.9892L5.74853 21.0031C8.38357 22.9245 10.6751 24.5954 10.6751 28.0641C10.6751 31.5409 8.31054 33.2634 5.72962 35.1389L5.70643 35.1557C3.15037 37.013 0.308017 39.0783 0.308017 43.1137C0.308017 47.1529 3.09386 49.1752 5.71403 51.0771L5.72968 51.0885C8.37228 53.0068 10.6751 54.6862 10.6751 58.1632C10.6751 61.6389 8.32233 63.3616 5.73262 65.2358C4.28098 66.1899 2.99212 67.306 1.90238 68.5534C1.84367 68.615 1.7991 68.6878 1.77332 68.768C1.74709 68.8495 1.74141 68.9354 1.75704 69.0196C1.77265 69.1036 1.8088 69.1822 1.86128 69.2506C1.91367 69.3188 1.98107 69.3753 2.05785 69.4177C2.13463 69.4602 2.21994 69.4882 2.30826 69.5007C2.39655 69.5133 2.487 69.5104 2.57413 69.4921C2.66125 69.4738 2.7442 69.4403 2.81743 69.3927C2.86611 69.361 2.91009 69.3233 2.94773 69.2804Z" fill="white" stroke="white" stroke-width="0.3"/>
<path d="M19.5349 69.2804L19.5704 69.2804L19.6152 69.229C20.6261 68.0704 21.8225 67.0317 23.1718 66.1419L23.1719 66.142L23.1773 66.1381L23.193 66.1267C25.8131 64.2248 28.599 62.2025 28.599 58.1632C28.599 54.1239 25.8131 52.1017 23.193 50.1997L23.1773 50.1884C20.5347 48.2701 18.2319 46.5907 18.2319 43.1137C18.2319 39.6367 20.5971 37.8878 23.1766 36.0395C25.74 34.2026 28.599 32.1115 28.599 28.0641C28.599 24.0423 25.8371 22.0285 23.2273 20.1257L23.1776 20.0894L23.1585 20.0755C20.5234 18.1541 18.2319 16.4831 18.2319 13.0145C18.2319 9.53937 20.5941 7.81683 23.1735 5.94251C24.9787 4.79758 26.4882 3.35726 27.6089 1.70782L27.6092 1.70801L27.6143 1.69936C27.6553 1.62932 27.6802 1.55177 27.6862 1.47122C27.6922 1.39064 27.679 1.31039 27.6482 1.23549C27.6174 1.16073 27.5701 1.09368 27.5106 1.03743C27.4511 0.981242 27.3803 0.93666 27.303 0.905133C27.2257 0.873603 27.1426 0.855404 27.0583 0.851034C26.9739 0.846664 26.8891 0.856161 26.8084 0.879269C26.7277 0.902374 26.6519 0.938894 26.5856 0.987729C26.5209 1.03544 26.466 1.09436 26.4253 1.1622C25.3898 2.67268 23.9952 3.99339 22.3252 5.04267L22.325 5.04239L22.3168 5.04829L22.3011 5.05975C19.681 6.96161 16.8952 8.98385 16.8952 13.0145C16.8952 17.0361 19.6686 19.0584 22.2833 20.9649L22.3166 20.9892L22.3357 21.0031C24.9707 22.9245 27.2623 24.5954 27.2623 28.0641C27.2623 31.541 24.9078 33.2637 22.317 35.1387C19.7442 37.0007 16.8952 39.0662 16.8952 43.1137C16.8952 47.1529 19.681 49.1752 22.3012 51.0771L22.3168 51.0885C24.9594 53.0068 27.2623 54.6862 27.2623 58.1632C27.2623 61.6388 24.8995 63.3613 22.3196 65.2359C20.8681 66.19 19.5792 67.306 18.4895 68.5534C18.4308 68.615 18.3863 68.6878 18.3605 68.768C18.3342 68.8495 18.3286 68.9354 18.3442 69.0196C18.3598 69.1036 18.396 69.1822 18.4484 69.2506C18.5008 69.3188 18.5682 69.3753 18.645 69.4177C18.7218 69.4602 18.8071 69.4882 18.8954 69.5007C18.9837 69.5133 19.0742 69.5104 19.1613 69.4921C19.2484 69.4738 19.3314 69.4403 19.4046 69.3927C19.4533 69.361 19.4972 69.3233 19.5349 69.2804Z" fill="white" stroke="white" stroke-width="0.3"/>
<path d="M35.0859 69.2804L35.1214 69.2804L35.1662 69.229C36.1771 68.0704 37.3736 67.0317 38.7228 66.1419L38.7229 66.142L38.7283 66.1381L38.744 66.1267C41.3642 64.2248 44.15 62.2025 44.15 58.1632C44.15 54.1239 41.3642 52.1017 38.744 50.1997L38.7283 50.1884C36.0857 48.2701 33.7829 46.5907 33.7829 43.1137C33.7829 39.6367 36.1481 37.8878 38.7276 36.0395C41.291 34.2026 44.15 32.1115 44.15 28.0641C44.15 24.0423 41.3881 22.0285 38.7784 20.1257L38.7286 20.0894L38.7095 20.0755C36.0744 18.1541 33.7829 16.4831 33.7829 13.0145C33.7829 9.53926 36.1351 7.81657 38.7244 5.94259C40.5297 4.79764 42.0392 3.3573 43.1599 1.70782L43.1602 1.70801L43.1653 1.69936C43.2063 1.62932 43.2312 1.55176 43.2372 1.47122C43.2432 1.39064 43.23 1.3104 43.1992 1.23549C43.1684 1.16073 43.1211 1.09368 43.0616 1.03743C43.0021 0.981242 42.9314 0.93666 42.8541 0.905133C42.7768 0.873603 42.6936 0.855404 42.6093 0.851034C42.5249 0.846664 42.4401 0.856161 42.3594 0.879269C42.2788 0.902375 42.2029 0.938894 42.1366 0.987729C42.0719 1.03544 42.017 1.09436 41.9763 1.1622C40.9408 2.67268 39.5463 3.99339 37.8762 5.04267L37.876 5.04239L37.8679 5.04829L37.8521 5.05976C35.2321 6.96161 32.4462 8.98385 32.4462 13.0145C32.4462 17.0361 35.2197 19.0584 37.8343 20.9649L37.8676 20.9892L37.8867 21.0031C40.5218 22.9245 42.8133 24.5954 42.8133 28.0641C42.8133 31.5409 40.4487 33.2634 37.8678 35.1389L37.8446 35.1557C35.2886 37.013 32.4462 39.0783 32.4462 43.1137C32.4462 47.1529 35.232 49.1752 37.8522 51.0771L37.8679 51.0885C40.5105 53.0068 42.8133 54.6862 42.8133 58.1632C42.8133 61.6389 40.4605 63.3616 37.8708 65.2358C36.4192 66.1899 35.1303 67.306 34.0406 68.5534C33.9819 68.615 33.9373 68.6878 33.9115 68.768C33.8853 68.8495 33.8796 68.9354 33.8952 69.0196C33.9108 69.1036 33.947 69.1822 33.9995 69.2506C34.0519 69.3188 34.1193 69.3753 34.196 69.4177C34.2728 69.4602 34.3581 69.4882 34.4464 69.5007C34.5347 69.5133 34.6252 69.5104 34.7123 69.4921C34.7994 69.4738 34.8824 69.4403 34.9556 69.3927C35.0043 69.361 35.0483 69.3233 35.0859 69.2804Z" fill="white" stroke="white" stroke-width="0.3"/>
</svg>
