<svg width="31" height="30" viewBox="0 0 31 30" fill="none" xmlns="http://www.w3.org/2000/svg">
<path d="M23.4681 8.46924L23.4682 8.46917L23.4657 8.4667L23.4089 8.40986L23.3531 8.35407C21.5251 6.29821 18.8598 5.04204 15.9283 5.04204C12.9585 5.04204 10.3312 6.33651 8.50359 8.39196L8.46674 8.42881L8.46668 8.42875L8.46477 8.4309C6.90313 10.183 5.98931 12.5061 5.98931 15.019C5.98931 20.5026 10.4447 24.958 15.9283 24.958C21.4119 24.958 25.9053 20.5027 25.9053 14.9811C25.9053 12.5058 24.9913 10.2209 23.4681 8.46924ZM7.24946 12.341H24.6808C24.8971 13.1056 25.0423 13.8705 25.083 14.7037H6.8494C6.88881 13.8668 6.9999 13.0684 7.24946 12.341ZM9.01705 9.12039H22.9145C23.4962 9.81437 24.0066 10.6134 24.378 11.4832H7.55437C7.92455 10.612 8.40088 9.81326 9.01705 9.12039ZM6.85173 15.5615H25.0451C25.0029 16.3941 24.8219 17.1588 24.5689 17.9243H7.32575C7.0744 17.1608 6.92762 16.396 6.85173 15.5615ZM7.66819 18.7442H24.2627C23.8549 19.6475 23.3076 20.4122 22.6881 21.107H9.20649C8.5878 20.4126 8.04121 19.6135 7.66819 18.7442ZM15.9283 24.1002C13.6782 24.1002 11.6813 23.306 10.1136 21.9648H21.7809C20.2118 23.3058 18.1787 24.1002 15.9283 24.1002ZM22.0516 8.26261H9.84301C11.4535 6.80582 13.6011 5.89982 15.9662 5.89982C18.3311 5.89982 20.4424 6.80568 22.0516 8.26261Z" fill="white" stroke="white" stroke-width="0.1"/>
<path d="M30.5156 0.95H1.37889C1.25386 0.95 1.14578 0.991895 1.06884 1.06884C0.991895 1.14578 0.95 1.25386 0.95 1.37889V28.6211C0.95 28.7461 0.991895 28.8542 1.06884 28.9312C1.14578 29.0081 1.25386 29.05 1.37889 29.05H30.5156C30.6406 29.05 30.7487 29.0081 30.8256 28.9312C30.9026 28.8542 30.9445 28.7461 30.9445 28.6211V1.37889C30.9445 1.12075 30.7293 0.95 30.5156 0.95ZM30.0867 28.1922H1.80778V1.80778H30.0867V28.1922Z" fill="white" stroke="white" stroke-width="0.1"/>
</svg>
