<svg width="95" height="70" viewBox="0 0 95 70" fill="none" xmlns="http://www.w3.org/2000/svg">
<path d="M7.61527 23.6666V58.666H0V69.5555H58.7566V58.666H50.8688V31.5116H69.0912V0H29.2431C17.3174 0 7.61527 10.617 7.61527 23.6666ZM9.25673 23.6666C9.25673 12.9041 16.303 3.93513 25.5761 2.02994L49.2284 30.9831V45.3396H9.25673V23.6666ZM57.1151 60.3075V67.914H1.64146V60.3075H7.61527H50.8688H57.1151ZM9.25673 58.666V46.981H49.2273V58.666H9.25673ZM67.4508 29.8702H50.4387L27.4616 1.74104C28.0492 1.68304 28.6413 1.64146 29.2431 1.64146H67.4508V29.8702Z" fill="white"/>
<path d="M91.472 25.1756C91.0376 25.087 90.718 24.936 90.3624 24.7522C89.7386 24.4293 89.0317 24.0638 87.6769 24.0638C86.3244 24.0638 85.6175 24.4293 84.9937 24.7522C84.4476 25.0345 84.0165 25.2566 83.0623 25.2566C82.108 25.2566 81.6769 25.0345 81.1308 24.7522C80.5071 24.4293 79.8001 24.0638 78.4465 24.0638C77.0928 24.0638 76.3859 24.4293 75.7621 24.7522C75.2161 25.0345 74.786 25.2566 73.8318 25.2566V26.8981C75.1843 26.8981 75.8913 26.5326 76.515 26.2098C77.0611 25.9274 77.4911 25.7053 78.4454 25.7053C79.3996 25.7053 79.8308 25.9274 80.3768 26.2098C81.0006 26.5326 81.7075 26.8981 83.0612 26.8981C84.4148 26.8981 85.1228 26.5326 85.7466 26.2098C86.2927 25.9274 86.7227 25.7053 87.6769 25.7053C88.6323 25.7053 89.0634 25.9274 89.6084 26.2098C90.0899 26.4593 90.6305 26.7296 91.4709 26.8412V29.5988L94.9978 26.0785L91.4709 22.5493V25.1756H91.472Z" fill="white"/>
<path d="M91.472 15.7644C91.0376 15.6758 90.718 15.5247 90.3624 15.3409C89.7386 15.0181 89.0317 14.6526 87.6769 14.6526C86.3244 14.6526 85.6175 15.0181 84.9937 15.3409C84.4476 15.6232 84.0165 15.8454 83.0623 15.8454C82.108 15.8454 81.6769 15.6232 81.1308 15.3409C80.5071 15.0181 79.8001 14.6526 78.4465 14.6526C77.0928 14.6526 76.3859 15.0181 75.7621 15.3409C75.2161 15.6232 74.786 15.8454 73.8318 15.8454V17.4868C75.1843 17.4868 75.8913 17.1213 76.515 16.7985C77.0611 16.5162 77.4911 16.294 78.4454 16.294C79.3996 16.294 79.8308 16.5162 80.3768 16.7985C81.0006 17.1213 81.7075 17.4868 83.0612 17.4868C84.4148 17.4868 85.1228 17.1213 85.7466 16.7985C86.2927 16.5162 86.7227 16.294 87.6769 16.294C88.6323 16.294 89.0634 16.5162 89.6084 16.7985C90.0899 17.048 90.6305 17.3183 91.4709 17.4299V20.1887L94.9978 16.665L91.4709 13.137V15.7644H91.472Z" fill="white"/>
<path d="M91.472 6.35157C91.0376 6.26402 90.718 6.11191 90.3624 5.92916C89.7386 5.60634 89.0317 5.24194 87.678 5.24194C86.3255 5.24194 85.6186 5.60634 84.9948 5.92807C84.4487 6.2104 84.0176 6.43254 83.0623 6.43254C82.1069 6.43254 81.6769 6.2104 81.1308 5.92807C80.5071 5.60634 79.8001 5.24194 78.4465 5.24194C77.0928 5.24194 76.387 5.60634 75.7632 5.92916C75.2172 6.2104 74.786 6.43254 73.8329 6.43254V8.074C75.1854 8.074 75.8924 7.7096 76.5161 7.38787C77.0622 7.10554 77.4933 6.8834 78.4476 6.8834C79.4029 6.8834 79.833 7.10554 80.379 7.38787C81.0028 7.7096 81.7097 8.074 83.0634 8.074C84.417 8.074 85.1239 7.7096 85.7477 7.38678C86.2937 7.10554 86.7249 6.8834 87.678 6.8834C88.6334 6.8834 89.0645 7.10554 89.6106 7.38787C90.0921 7.63628 90.6327 7.90657 91.4731 8.0171V10.7758L95 7.25218L91.4731 3.72852V6.35157H91.472Z" fill="white"/>
</svg>
