<svg width="92" height="52" viewBox="0 0 92 52" fill="none" xmlns="http://www.w3.org/2000/svg">
<path d="M92 15.4294C92 21.6157 86.8256 26.6494 80.4664 26.6494H1.04851C0.469732 26.6494 0 26.1924 0 25.6294C0 25.0664 0.469732 24.6094 1.04851 24.6094H80.4664C85.6691 24.6094 89.903 20.4906 89.903 15.4294C89.903 10.3682 85.6691 6.24939 80.4664 6.24939C75.2637 6.24939 71.0298 10.3682 71.0298 15.4294C71.0298 15.9924 70.5601 16.4494 69.9813 16.4494C69.4025 16.4494 68.9328 15.9924 68.9328 15.4294C68.9328 9.2431 74.1072 4.20939 80.4664 4.20939C86.8256 4.20939 92 9.2431 92 15.4294ZM1.04851 16.4494H57.3992C62.0242 16.4494 65.7873 12.7886 65.7873 8.28939C65.7873 3.79017 62.0242 0.129395 57.3992 0.129395C52.7742 0.129395 49.0111 3.79017 49.0111 8.28939C49.0111 8.85243 49.4808 9.30939 50.0596 9.30939C50.6384 9.30939 51.1081 8.85243 51.1081 8.28939C51.1081 4.91421 53.9297 2.16939 57.3992 2.16939C60.8687 2.16939 63.6902 4.91421 63.6902 8.28939C63.6902 11.6646 60.8687 14.4094 57.3992 14.4094H1.04851C0.469732 14.4094 0 14.8664 0 15.4294C0 15.9924 0.469732 16.4494 1.04851 16.4494ZM69.9813 34.8094H1.04851C0.469732 34.8094 0 35.2664 0 35.8294C0 36.3924 0.469732 36.8494 1.04851 36.8494H69.9813C73.4508 36.8494 76.2724 39.5942 76.2724 42.9694C76.2724 46.3446 73.4508 49.0894 69.9813 49.0894C66.5118 49.0894 63.6902 46.3446 63.6902 42.9694C63.6902 42.4064 63.2205 41.9494 62.6417 41.9494C62.063 41.9494 61.5932 42.4064 61.5932 42.9694C61.5932 47.4686 65.3563 51.1294 69.9813 51.1294C74.6063 51.1294 78.3694 47.4686 78.3694 42.9694C78.3694 38.4702 74.6063 34.8094 69.9813 34.8094Z" fill="white"/>
</svg>
