<svg width="37" height="26" viewBox="0 0 37 26" fill="none" xmlns="http://www.w3.org/2000/svg">
<mask id="path-1-outside-1" maskUnits="userSpaceOnUse" x="0" y="0" width="37" height="26" fill="black">
<rect fill="white" width="37" height="26"/>
<path d="M4.4828 7.94081C5.32426 7.92565 6.13092 7.60622 6.75016 7.04295C7.36941 6.47968 7.7583 5.71164 7.84325 4.88413H14.9579V5.41688C12.9065 6.13837 11.1317 7.47028 9.87746 9.22944C8.62327 10.9886 7.95135 13.0886 7.95412 15.2406V17.9874H5.00655V25H12.1021V17.9874H8.71873V15.233C8.71807 13.2848 9.3136 11.382 10.4271 9.77444C11.5406 8.16686 13.12 6.92971 14.9579 6.22544V8.01259H22.0535V6.22166C23.8939 6.92349 25.4755 8.16057 26.5895 9.76949C27.7034 11.3784 28.2974 13.2835 28.2927 15.233V17.9874H24.9055V25H32.0049V17.9874H29.0573V15.233C29.064 13.0801 28.3937 10.9784 27.1389 9.21845C25.8842 7.45855 24.1071 6.12747 22.0535 5.40932V4.88413H29.0765C29.1965 5.73857 29.6372 6.51719 30.311 7.0655C30.9849 7.61382 31.8426 7.89177 32.7142 7.8442C33.5857 7.79664 34.4073 7.42705 35.0159 6.80874C35.6246 6.19044 35.9758 5.36861 36 4.5063C35.9758 3.64399 35.6246 2.82216 35.0159 2.20385C34.4073 1.58555 33.5857 1.21595 32.7142 1.16839C31.8426 1.12083 30.9849 1.39878 30.311 1.94709C29.6372 2.49541 29.1965 3.27402 29.0765 4.12846H22.0535V1H14.9579V4.12846H7.84325C7.75814 3.29968 7.36816 2.53061 6.74731 1.96717C6.12646 1.40373 5.31794 1.08512 4.47515 1.07179C3.55348 1.07179 2.66956 1.43364 2.01785 2.07773C1.36613 2.72183 1 3.59541 1 4.5063C1 5.41719 1.36613 6.29077 2.01785 6.93486C2.66956 7.57896 3.55348 7.94081 4.47515 7.94081H4.4828ZM11.3375 24.2443H5.77116V18.7431H11.3375V24.2443ZM31.2365 24.2443H25.6701V18.7431H31.2403L31.2365 24.2443ZM32.5248 1.91436C33.0404 1.93068 33.5397 2.09668 33.9604 2.39164C34.3811 2.68661 34.7046 3.09747 34.8906 3.57298C35.0765 4.04849 35.1167 4.56759 35.006 5.06551C34.8954 5.56344 34.6389 6.01814 34.2684 6.37289C33.898 6.72764 33.43 6.96673 32.923 7.06033C32.4159 7.15393 31.8922 7.09791 31.4172 6.89923C30.9421 6.70056 30.5368 6.36804 30.2518 5.94317C29.9667 5.51829 29.8146 5.01986 29.8143 4.51008C29.8274 3.81124 30.1198 3.14594 30.6277 2.65955C31.1356 2.17317 31.8177 1.90525 32.5248 1.91436ZM15.7034 1.75567H21.2889V7.25693H15.7226L15.7034 1.75567ZM4.4675 1.82746C5.18638 1.82746 5.87582 2.10969 6.38415 2.61207C6.89247 3.11445 7.17804 3.79582 7.17804 4.5063C7.17804 5.21677 6.89247 5.89814 6.38415 6.40052C5.87582 6.9029 5.18638 7.18514 4.4675 7.18514C3.74862 7.18514 3.05919 6.9029 2.55086 6.40052C2.04254 5.89814 1.75696 5.21677 1.75696 4.5063C1.75696 3.79582 2.04254 3.11445 2.55086 2.61207C3.05919 2.10969 3.74862 1.82746 4.4675 1.82746Z"/>
</mask>
<path d="M4.4828 7.94081C5.32426 7.92565 6.13092 7.60622 6.75016 7.04295C7.36941 6.47968 7.7583 5.71164 7.84325 4.88413H14.9579V5.41688C12.9065 6.13837 11.1317 7.47028 9.87746 9.22944C8.62327 10.9886 7.95135 13.0886 7.95412 15.2406V17.9874H5.00655V25H12.1021V17.9874H8.71873V15.233C8.71807 13.2848 9.3136 11.382 10.4271 9.77444C11.5406 8.16686 13.12 6.92971 14.9579 6.22544V8.01259H22.0535V6.22166C23.8939 6.92349 25.4755 8.16057 26.5895 9.76949C27.7034 11.3784 28.2974 13.2835 28.2927 15.233V17.9874H24.9055V25H32.0049V17.9874H29.0573V15.233C29.064 13.0801 28.3937 10.9784 27.1389 9.21845C25.8842 7.45855 24.1071 6.12747 22.0535 5.40932V4.88413H29.0765C29.1965 5.73857 29.6372 6.51719 30.311 7.0655C30.9849 7.61382 31.8426 7.89177 32.7142 7.8442C33.5857 7.79664 34.4073 7.42705 35.0159 6.80874C35.6246 6.19044 35.9758 5.36861 36 4.5063C35.9758 3.64399 35.6246 2.82216 35.0159 2.20385C34.4073 1.58555 33.5857 1.21595 32.7142 1.16839C31.8426 1.12083 30.9849 1.39878 30.311 1.94709C29.6372 2.49541 29.1965 3.27402 29.0765 4.12846H22.0535V1H14.9579V4.12846H7.84325C7.75814 3.29968 7.36816 2.53061 6.74731 1.96717C6.12646 1.40373 5.31794 1.08512 4.47515 1.07179C3.55348 1.07179 2.66956 1.43364 2.01785 2.07773C1.36613 2.72183 1 3.59541 1 4.5063C1 5.41719 1.36613 6.29077 2.01785 6.93486C2.66956 7.57896 3.55348 7.94081 4.47515 7.94081H4.4828ZM11.3375 24.2443H5.77116V18.7431H11.3375V24.2443ZM31.2365 24.2443H25.6701V18.7431H31.2403L31.2365 24.2443ZM32.5248 1.91436C33.0404 1.93068 33.5397 2.09668 33.9604 2.39164C34.3811 2.68661 34.7046 3.09747 34.8906 3.57298C35.0765 4.04849 35.1167 4.56759 35.006 5.06551C34.8954 5.56344 34.6389 6.01814 34.2684 6.37289C33.898 6.72764 33.43 6.96673 32.923 7.06033C32.4159 7.15393 31.8922 7.09791 31.4172 6.89923C30.9421 6.70056 30.5368 6.36804 30.2518 5.94317C29.9667 5.51829 29.8146 5.01986 29.8143 4.51008C29.8274 3.81124 30.1198 3.14594 30.6277 2.65955C31.1356 2.17317 31.8177 1.90525 32.5248 1.91436ZM15.7034 1.75567H21.2889V7.25693H15.7226L15.7034 1.75567ZM4.4675 1.82746C5.18638 1.82746 5.87582 2.10969 6.38415 2.61207C6.89247 3.11445 7.17804 3.79582 7.17804 4.5063C7.17804 5.21677 6.89247 5.89814 6.38415 6.40052C5.87582 6.9029 5.18638 7.18514 4.4675 7.18514C3.74862 7.18514 3.05919 6.9029 2.55086 6.40052C2.04254 5.89814 1.75696 5.21677 1.75696 4.5063C1.75696 3.79582 2.04254 3.11445 2.55086 2.61207C3.05919 2.10969 3.74862 1.82746 4.4675 1.82746Z" fill="white"/>
<path d="M4.4828 7.94081C5.32426 7.92565 6.13092 7.60622 6.75016 7.04295C7.36941 6.47968 7.7583 5.71164 7.84325 4.88413H14.9579V5.41688C12.9065 6.13837 11.1317 7.47028 9.87746 9.22944C8.62327 10.9886 7.95135 13.0886 7.95412 15.2406V17.9874H5.00655V25H12.1021V17.9874H8.71873V15.233C8.71807 13.2848 9.3136 11.382 10.4271 9.77444C11.5406 8.16686 13.12 6.92971 14.9579 6.22544V8.01259H22.0535V6.22166C23.8939 6.92349 25.4755 8.16057 26.5895 9.76949C27.7034 11.3784 28.2974 13.2835 28.2927 15.233V17.9874H24.9055V25H32.0049V17.9874H29.0573V15.233C29.064 13.0801 28.3937 10.9784 27.1389 9.21845C25.8842 7.45855 24.1071 6.12747 22.0535 5.40932V4.88413H29.0765C29.1965 5.73857 29.6372 6.51719 30.311 7.0655C30.9849 7.61382 31.8426 7.89177 32.7142 7.8442C33.5857 7.79664 34.4073 7.42705 35.0159 6.80874C35.6246 6.19044 35.9758 5.36861 36 4.5063C35.9758 3.64399 35.6246 2.82216 35.0159 2.20385C34.4073 1.58555 33.5857 1.21595 32.7142 1.16839C31.8426 1.12083 30.9849 1.39878 30.311 1.94709C29.6372 2.49541 29.1965 3.27402 29.0765 4.12846H22.0535V1H14.9579V4.12846H7.84325C7.75814 3.29968 7.36816 2.53061 6.74731 1.96717C6.12646 1.40373 5.31794 1.08512 4.47515 1.07179C3.55348 1.07179 2.66956 1.43364 2.01785 2.07773C1.36613 2.72183 1 3.59541 1 4.5063C1 5.41719 1.36613 6.29077 2.01785 6.93486C2.66956 7.57896 3.55348 7.94081 4.47515 7.94081H4.4828ZM11.3375 24.2443H5.77116V18.7431H11.3375V24.2443ZM31.2365 24.2443H25.6701V18.7431H31.2403L31.2365 24.2443ZM32.5248 1.91436C33.0404 1.93068 33.5397 2.09668 33.9604 2.39164C34.3811 2.68661 34.7046 3.09747 34.8906 3.57298C35.0765 4.04849 35.1167 4.56759 35.006 5.06551C34.8954 5.56344 34.6389 6.01814 34.2684 6.37289C33.898 6.72764 33.43 6.96673 32.923 7.06033C32.4159 7.15393 31.8922 7.09791 31.4172 6.89923C30.9421 6.70056 30.5368 6.36804 30.2518 5.94317C29.9667 5.51829 29.8146 5.01986 29.8143 4.51008C29.8274 3.81124 30.1198 3.14594 30.6277 2.65955C31.1356 2.17317 31.8177 1.90525 32.5248 1.91436ZM15.7034 1.75567H21.2889V7.25693H15.7226L15.7034 1.75567ZM4.4675 1.82746C5.18638 1.82746 5.87582 2.10969 6.38415 2.61207C6.89247 3.11445 7.17804 3.79582 7.17804 4.5063C7.17804 5.21677 6.89247 5.89814 6.38415 6.40052C5.87582 6.9029 5.18638 7.18514 4.4675 7.18514C3.74862 7.18514 3.05919 6.9029 2.55086 6.40052C2.04254 5.89814 1.75696 5.21677 1.75696 4.5063C1.75696 3.79582 2.04254 3.11445 2.55086 2.61207C3.05919 2.10969 3.74862 1.82746 4.4675 1.82746Z" stroke="white" stroke-width="0.2" mask="url(#path-1-outside-1)"/>
</svg>
