<svg width="29" height="31" viewBox="0 0 29 31" fill="none" xmlns="http://www.w3.org/2000/svg">
<mask id="path-1-outside-1" maskUnits="userSpaceOnUse" x="-0.0930176" y="0" width="29" height="31" fill="black">
<rect fill="white" x="-0.0930176" width="29" height="31"/>
<path d="M4.61628 1C2.57169 1 0.906982 2.6647 0.906982 4.7093C0.906982 6.75389 2.57169 8.41859 4.61628 8.41859C6.66087 8.41859 8.32558 6.75389 8.32558 4.7093C8.32558 2.6647 6.66087 1 4.61628 1ZM14.7325 1C12.6879 1 11.0232 2.6647 11.0232 4.7093C11.0232 5.72941 11.4816 6.6395 12.1297 7.30159C12.161 7.33449 12.1986 7.36076 12.2402 7.37887C12.2818 7.39697 12.3267 7.40652 12.3721 7.40697V16.5116C12.3721 16.5116 12.3698 17.153 12.214 17.7761C12.1361 18.0877 12.0128 18.3817 11.8663 18.577C11.7198 18.7724 11.5853 18.8721 11.3605 18.8721C10.6523 18.8721 10.2395 18.4537 9.59011 17.9342C8.94072 17.4147 8.07267 16.8488 6.63953 16.8488C5.90891 16.8488 4.87648 16.8431 3.98401 17.0701C3.53778 17.1836 3.11874 17.3481 2.79324 17.6391C2.46775 17.9301 2.25582 18.3644 2.25582 18.8721C2.25582 19.2093 2.2742 19.6936 2.67733 20.1471C3.08046 20.6007 3.80288 21.0342 5.17478 21.5487C6.80956 22.1617 7.98365 24.1857 9.35828 26.1431C10.0456 27.1218 10.7916 28.0789 11.7082 28.7987C12.6248 29.5184 13.7266 30 15.0698 30H22.4883C22.4919 30 22.4954 30 22.4989 30C24.1953 29.9208 25.7203 29.6644 26.8299 28.6722C27.9395 27.68 28.5581 26.0032 28.5581 23.2558V17.5232C28.5581 16.2214 27.4995 15.1628 26.1976 15.1628C25.753 15.1628 25.387 15.3541 25.1755 15.4262C25.1592 14.7312 24.9513 14.1981 24.5748 13.8877C24.1834 13.5649 23.6737 13.4956 23.1838 13.5189C22.3665 13.5578 21.5821 13.8399 21.0447 14.0352C20.8281 12.9555 19.9217 12.1279 18.779 12.1279C18.0123 12.1279 17.4985 12.5228 17.093 12.9393V8.41859V7.40697C17.1384 7.40652 17.1832 7.39697 17.2249 7.37887C17.2665 7.36076 17.3041 7.33449 17.3354 7.30159C17.9835 6.6395 18.4418 5.72941 18.4418 4.7093C18.4418 2.6647 16.7771 1 14.7325 1ZM24.8488 1C22.8042 1 21.1395 2.6647 21.1395 4.7093C21.1395 6.75389 22.8042 8.41859 24.8488 8.41859C26.8934 8.41859 28.5581 6.75389 28.5581 4.7093C28.5581 2.6647 26.8934 1 24.8488 1ZM4.61628 1.67442C6.29639 1.67442 7.65116 3.02918 7.65116 4.7093C7.65116 6.38941 6.29639 7.74418 4.61628 7.74418C2.93617 7.74418 1.5814 6.38941 1.5814 4.7093C1.5814 3.02918 2.93617 1.67442 4.61628 1.67442ZM14.7325 1.67442C16.4127 1.67442 17.7674 3.02918 17.7674 4.7093C17.7674 5.3995 17.5036 6.04735 17.093 6.56395V6.11082C17.0944 6.09329 17.0944 6.07567 17.093 6.05813C17.0922 6.03323 17.0887 6.00849 17.0825 5.98437C17.0783 5.95906 17.0712 5.93431 17.0614 5.9106C16.9816 4.68048 15.9825 3.69767 14.7325 3.69767C14.722 3.69718 14.7115 3.69718 14.7009 3.69767C14.6904 3.69718 14.6798 3.69718 14.6693 3.69767C14.6476 3.70259 14.6264 3.70965 14.6061 3.71875C14.6025 3.71895 14.5991 3.71853 14.5956 3.71875C13.3604 3.79323 12.3721 4.80452 12.3721 6.05813V6.56395C11.9615 6.04735 11.6977 5.3995 11.6977 4.7093C11.6977 3.02918 13.0524 1.67442 14.7325 1.67442ZM24.8488 1.67442C26.5289 1.67442 27.8837 3.02918 27.8837 4.7093C27.8837 6.38941 26.5289 7.74418 24.8488 7.74418C23.1687 7.74418 21.8139 6.38941 21.8139 4.7093C21.8139 3.02918 23.1687 1.67442 24.8488 1.67442ZM14.7325 4.37209C15.6616 4.37209 16.4017 5.10189 16.4186 6.02652C16.4188 6.03728 16.4186 6.04734 16.4186 6.05813C16.4181 6.06866 16.4181 6.07921 16.4186 6.08975V8.41859V13.8139C16.4186 13.8838 16.4402 13.952 16.4807 14.0091C16.5211 14.0661 16.5782 14.1092 16.6442 14.1323C16.7101 14.1555 16.7817 14.1575 16.8489 14.1383C16.916 14.119 16.9756 14.0793 17.0192 14.0247C17.4031 13.5475 17.9649 12.8023 18.779 12.8023C19.7189 12.8023 20.4651 13.5485 20.4651 14.4884C20.4658 14.5413 20.4789 14.5934 20.5034 14.6403C20.5279 14.6873 20.5632 14.7278 20.6063 14.7586C20.6494 14.7893 20.6991 14.8095 20.7515 14.8175C20.8039 14.8255 20.8574 14.821 20.9077 14.8045C21.4455 14.6252 22.4353 14.2309 23.226 14.1933C23.6213 14.1745 23.9336 14.2421 24.1428 14.4146C24.352 14.5871 24.5116 14.8888 24.5116 15.5C24.5116 15.6124 24.5177 15.7178 24.5643 15.8267C24.6109 15.9354 24.7125 16.0407 24.8277 16.0901C25.0583 16.1889 25.2279 16.1183 25.3757 16.069C25.6713 15.9705 25.9728 15.8372 26.1976 15.8372C27.1375 15.8372 27.8837 16.5833 27.8837 17.5232V23.2558C27.8837 25.9037 27.3082 27.3429 26.3873 28.1664C25.4685 28.9879 24.1297 29.2481 22.4883 29.3255C22.4845 29.3257 22.4816 29.3254 22.4778 29.3255H15.0698C13.8838 29.3255 12.9463 28.9106 12.1192 28.2612C11.2921 27.6118 10.5907 26.7129 9.91678 25.7532C8.56892 23.834 7.38184 21.6571 5.40661 20.9164C4.08085 20.4193 3.45443 19.9992 3.18314 19.694C2.91185 19.3888 2.93024 19.2093 2.93024 18.8721C2.93024 18.5367 3.04146 18.3281 3.24637 18.145C3.45127 17.9618 3.76988 17.8207 4.15262 17.7235C4.9181 17.5288 5.90891 17.5232 6.63953 17.5232C7.90407 17.5232 8.55346 17.969 9.1686 18.4611C9.78374 18.9532 10.3826 19.5465 11.3605 19.5465C11.8101 19.5465 12.1814 19.2984 12.4142 18.988C12.6471 18.6775 12.7766 18.297 12.8674 17.9342C13.0488 17.2083 13.0465 16.5116 13.0465 16.5116V6.05813C13.0465 5.11823 13.7926 4.37209 14.7325 4.37209Z"/>
</mask>
<path d="M4.61628 1C2.57169 1 0.906982 2.6647 0.906982 4.7093C0.906982 6.75389 2.57169 8.41859 4.61628 8.41859C6.66087 8.41859 8.32558 6.75389 8.32558 4.7093C8.32558 2.6647 6.66087 1 4.61628 1ZM14.7325 1C12.6879 1 11.0232 2.6647 11.0232 4.7093C11.0232 5.72941 11.4816 6.6395 12.1297 7.30159C12.161 7.33449 12.1986 7.36076 12.2402 7.37887C12.2818 7.39697 12.3267 7.40652 12.3721 7.40697V16.5116C12.3721 16.5116 12.3698 17.153 12.214 17.7761C12.1361 18.0877 12.0128 18.3817 11.8663 18.577C11.7198 18.7724 11.5853 18.8721 11.3605 18.8721C10.6523 18.8721 10.2395 18.4537 9.59011 17.9342C8.94072 17.4147 8.07267 16.8488 6.63953 16.8488C5.90891 16.8488 4.87648 16.8431 3.98401 17.0701C3.53778 17.1836 3.11874 17.3481 2.79324 17.6391C2.46775 17.9301 2.25582 18.3644 2.25582 18.8721C2.25582 19.2093 2.2742 19.6936 2.67733 20.1471C3.08046 20.6007 3.80288 21.0342 5.17478 21.5487C6.80956 22.1617 7.98365 24.1857 9.35828 26.1431C10.0456 27.1218 10.7916 28.0789 11.7082 28.7987C12.6248 29.5184 13.7266 30 15.0698 30H22.4883C22.4919 30 22.4954 30 22.4989 30C24.1953 29.9208 25.7203 29.6644 26.8299 28.6722C27.9395 27.68 28.5581 26.0032 28.5581 23.2558V17.5232C28.5581 16.2214 27.4995 15.1628 26.1976 15.1628C25.753 15.1628 25.387 15.3541 25.1755 15.4262C25.1592 14.7312 24.9513 14.1981 24.5748 13.8877C24.1834 13.5649 23.6737 13.4956 23.1838 13.5189C22.3665 13.5578 21.5821 13.8399 21.0447 14.0352C20.8281 12.9555 19.9217 12.1279 18.779 12.1279C18.0123 12.1279 17.4985 12.5228 17.093 12.9393V8.41859V7.40697C17.1384 7.40652 17.1832 7.39697 17.2249 7.37887C17.2665 7.36076 17.3041 7.33449 17.3354 7.30159C17.9835 6.6395 18.4418 5.72941 18.4418 4.7093C18.4418 2.6647 16.7771 1 14.7325 1ZM24.8488 1C22.8042 1 21.1395 2.6647 21.1395 4.7093C21.1395 6.75389 22.8042 8.41859 24.8488 8.41859C26.8934 8.41859 28.5581 6.75389 28.5581 4.7093C28.5581 2.6647 26.8934 1 24.8488 1ZM4.61628 1.67442C6.29639 1.67442 7.65116 3.02918 7.65116 4.7093C7.65116 6.38941 6.29639 7.74418 4.61628 7.74418C2.93617 7.74418 1.5814 6.38941 1.5814 4.7093C1.5814 3.02918 2.93617 1.67442 4.61628 1.67442ZM14.7325 1.67442C16.4127 1.67442 17.7674 3.02918 17.7674 4.7093C17.7674 5.3995 17.5036 6.04735 17.093 6.56395V6.11082C17.0944 6.09329 17.0944 6.07567 17.093 6.05813C17.0922 6.03323 17.0887 6.00849 17.0825 5.98437C17.0783 5.95906 17.0712 5.93431 17.0614 5.9106C16.9816 4.68048 15.9825 3.69767 14.7325 3.69767C14.722 3.69718 14.7115 3.69718 14.7009 3.69767C14.6904 3.69718 14.6798 3.69718 14.6693 3.69767C14.6476 3.70259 14.6264 3.70965 14.6061 3.71875C14.6025 3.71895 14.5991 3.71853 14.5956 3.71875C13.3604 3.79323 12.3721 4.80452 12.3721 6.05813V6.56395C11.9615 6.04735 11.6977 5.3995 11.6977 4.7093C11.6977 3.02918 13.0524 1.67442 14.7325 1.67442ZM24.8488 1.67442C26.5289 1.67442 27.8837 3.02918 27.8837 4.7093C27.8837 6.38941 26.5289 7.74418 24.8488 7.74418C23.1687 7.74418 21.8139 6.38941 21.8139 4.7093C21.8139 3.02918 23.1687 1.67442 24.8488 1.67442ZM14.7325 4.37209C15.6616 4.37209 16.4017 5.10189 16.4186 6.02652C16.4188 6.03728 16.4186 6.04734 16.4186 6.05813C16.4181 6.06866 16.4181 6.07921 16.4186 6.08975V8.41859V13.8139C16.4186 13.8838 16.4402 13.952 16.4807 14.0091C16.5211 14.0661 16.5782 14.1092 16.6442 14.1323C16.7101 14.1555 16.7817 14.1575 16.8489 14.1383C16.916 14.119 16.9756 14.0793 17.0192 14.0247C17.4031 13.5475 17.9649 12.8023 18.779 12.8023C19.7189 12.8023 20.4651 13.5485 20.4651 14.4884C20.4658 14.5413 20.4789 14.5934 20.5034 14.6403C20.5279 14.6873 20.5632 14.7278 20.6063 14.7586C20.6494 14.7893 20.6991 14.8095 20.7515 14.8175C20.8039 14.8255 20.8574 14.821 20.9077 14.8045C21.4455 14.6252 22.4353 14.2309 23.226 14.1933C23.6213 14.1745 23.9336 14.2421 24.1428 14.4146C24.352 14.5871 24.5116 14.8888 24.5116 15.5C24.5116 15.6124 24.5177 15.7178 24.5643 15.8267C24.6109 15.9354 24.7125 16.0407 24.8277 16.0901C25.0583 16.1889 25.2279 16.1183 25.3757 16.069C25.6713 15.9705 25.9728 15.8372 26.1976 15.8372C27.1375 15.8372 27.8837 16.5833 27.8837 17.5232V23.2558C27.8837 25.9037 27.3082 27.3429 26.3873 28.1664C25.4685 28.9879 24.1297 29.2481 22.4883 29.3255C22.4845 29.3257 22.4816 29.3254 22.4778 29.3255H15.0698C13.8838 29.3255 12.9463 28.9106 12.1192 28.2612C11.2921 27.6118 10.5907 26.7129 9.91678 25.7532C8.56892 23.834 7.38184 21.6571 5.40661 20.9164C4.08085 20.4193 3.45443 19.9992 3.18314 19.694C2.91185 19.3888 2.93024 19.2093 2.93024 18.8721C2.93024 18.5367 3.04146 18.3281 3.24637 18.145C3.45127 17.9618 3.76988 17.8207 4.15262 17.7235C4.9181 17.5288 5.90891 17.5232 6.63953 17.5232C7.90407 17.5232 8.55346 17.969 9.1686 18.4611C9.78374 18.9532 10.3826 19.5465 11.3605 19.5465C11.8101 19.5465 12.1814 19.2984 12.4142 18.988C12.6471 18.6775 12.7766 18.297 12.8674 17.9342C13.0488 17.2083 13.0465 16.5116 13.0465 16.5116V6.05813C13.0465 5.11823 13.7926 4.37209 14.7325 4.37209Z" fill="white"/>
<path d="M4.61628 1C2.57169 1 0.906982 2.6647 0.906982 4.7093C0.906982 6.75389 2.57169 8.41859 4.61628 8.41859C6.66087 8.41859 8.32558 6.75389 8.32558 4.7093C8.32558 2.6647 6.66087 1 4.61628 1ZM14.7325 1C12.6879 1 11.0232 2.6647 11.0232 4.7093C11.0232 5.72941 11.4816 6.6395 12.1297 7.30159C12.161 7.33449 12.1986 7.36076 12.2402 7.37887C12.2818 7.39697 12.3267 7.40652 12.3721 7.40697V16.5116C12.3721 16.5116 12.3698 17.153 12.214 17.7761C12.1361 18.0877 12.0128 18.3817 11.8663 18.577C11.7198 18.7724 11.5853 18.8721 11.3605 18.8721C10.6523 18.8721 10.2395 18.4537 9.59011 17.9342C8.94072 17.4147 8.07267 16.8488 6.63953 16.8488C5.90891 16.8488 4.87648 16.8431 3.98401 17.0701C3.53778 17.1836 3.11874 17.3481 2.79324 17.6391C2.46775 17.9301 2.25582 18.3644 2.25582 18.8721C2.25582 19.2093 2.2742 19.6936 2.67733 20.1471C3.08046 20.6007 3.80288 21.0342 5.17478 21.5487C6.80956 22.1617 7.98365 24.1857 9.35828 26.1431C10.0456 27.1218 10.7916 28.0789 11.7082 28.7987C12.6248 29.5184 13.7266 30 15.0698 30H22.4883C22.4919 30 22.4954 30 22.4989 30C24.1953 29.9208 25.7203 29.6644 26.8299 28.6722C27.9395 27.68 28.5581 26.0032 28.5581 23.2558V17.5232C28.5581 16.2214 27.4995 15.1628 26.1976 15.1628C25.753 15.1628 25.387 15.3541 25.1755 15.4262C25.1592 14.7312 24.9513 14.1981 24.5748 13.8877C24.1834 13.5649 23.6737 13.4956 23.1838 13.5189C22.3665 13.5578 21.5821 13.8399 21.0447 14.0352C20.8281 12.9555 19.9217 12.1279 18.779 12.1279C18.0123 12.1279 17.4985 12.5228 17.093 12.9393V8.41859V7.40697C17.1384 7.40652 17.1832 7.39697 17.2249 7.37887C17.2665 7.36076 17.3041 7.33449 17.3354 7.30159C17.9835 6.6395 18.4418 5.72941 18.4418 4.7093C18.4418 2.6647 16.7771 1 14.7325 1ZM24.8488 1C22.8042 1 21.1395 2.6647 21.1395 4.7093C21.1395 6.75389 22.8042 8.41859 24.8488 8.41859C26.8934 8.41859 28.5581 6.75389 28.5581 4.7093C28.5581 2.6647 26.8934 1 24.8488 1ZM4.61628 1.67442C6.29639 1.67442 7.65116 3.02918 7.65116 4.7093C7.65116 6.38941 6.29639 7.74418 4.61628 7.74418C2.93617 7.74418 1.5814 6.38941 1.5814 4.7093C1.5814 3.02918 2.93617 1.67442 4.61628 1.67442ZM14.7325 1.67442C16.4127 1.67442 17.7674 3.02918 17.7674 4.7093C17.7674 5.3995 17.5036 6.04735 17.093 6.56395V6.11082C17.0944 6.09329 17.0944 6.07567 17.093 6.05813C17.0922 6.03323 17.0887 6.00849 17.0825 5.98437C17.0783 5.95906 17.0712 5.93431 17.0614 5.9106C16.9816 4.68048 15.9825 3.69767 14.7325 3.69767C14.722 3.69718 14.7115 3.69718 14.7009 3.69767C14.6904 3.69718 14.6798 3.69718 14.6693 3.69767C14.6476 3.70259 14.6264 3.70965 14.6061 3.71875C14.6025 3.71895 14.5991 3.71853 14.5956 3.71875C13.3604 3.79323 12.3721 4.80452 12.3721 6.05813V6.56395C11.9615 6.04735 11.6977 5.3995 11.6977 4.7093C11.6977 3.02918 13.0524 1.67442 14.7325 1.67442ZM24.8488 1.67442C26.5289 1.67442 27.8837 3.02918 27.8837 4.7093C27.8837 6.38941 26.5289 7.74418 24.8488 7.74418C23.1687 7.74418 21.8139 6.38941 21.8139 4.7093C21.8139 3.02918 23.1687 1.67442 24.8488 1.67442ZM14.7325 4.37209C15.6616 4.37209 16.4017 5.10189 16.4186 6.02652C16.4188 6.03728 16.4186 6.04734 16.4186 6.05813C16.4181 6.06866 16.4181 6.07921 16.4186 6.08975V8.41859V13.8139C16.4186 13.8838 16.4402 13.952 16.4807 14.0091C16.5211 14.0661 16.5782 14.1092 16.6442 14.1323C16.7101 14.1555 16.7817 14.1575 16.8489 14.1383C16.916 14.119 16.9756 14.0793 17.0192 14.0247C17.4031 13.5475 17.9649 12.8023 18.779 12.8023C19.7189 12.8023 20.4651 13.5485 20.4651 14.4884C20.4658 14.5413 20.4789 14.5934 20.5034 14.6403C20.5279 14.6873 20.5632 14.7278 20.6063 14.7586C20.6494 14.7893 20.6991 14.8095 20.7515 14.8175C20.8039 14.8255 20.8574 14.821 20.9077 14.8045C21.4455 14.6252 22.4353 14.2309 23.226 14.1933C23.6213 14.1745 23.9336 14.2421 24.1428 14.4146C24.352 14.5871 24.5116 14.8888 24.5116 15.5C24.5116 15.6124 24.5177 15.7178 24.5643 15.8267C24.6109 15.9354 24.7125 16.0407 24.8277 16.0901C25.0583 16.1889 25.2279 16.1183 25.3757 16.069C25.6713 15.9705 25.9728 15.8372 26.1976 15.8372C27.1375 15.8372 27.8837 16.5833 27.8837 17.5232V23.2558C27.8837 25.9037 27.3082 27.3429 26.3873 28.1664C25.4685 28.9879 24.1297 29.2481 22.4883 29.3255C22.4845 29.3257 22.4816 29.3254 22.4778 29.3255H15.0698C13.8838 29.3255 12.9463 28.9106 12.1192 28.2612C11.2921 27.6118 10.5907 26.7129 9.91678 25.7532C8.56892 23.834 7.38184 21.6571 5.40661 20.9164C4.08085 20.4193 3.45443 19.9992 3.18314 19.694C2.91185 19.3888 2.93024 19.2093 2.93024 18.8721C2.93024 18.5367 3.04146 18.3281 3.24637 18.145C3.45127 17.9618 3.76988 17.8207 4.15262 17.7235C4.9181 17.5288 5.90891 17.5232 6.63953 17.5232C7.90407 17.5232 8.55346 17.969 9.1686 18.4611C9.78374 18.9532 10.3826 19.5465 11.3605 19.5465C11.8101 19.5465 12.1814 19.2984 12.4142 18.988C12.6471 18.6775 12.7766 18.297 12.8674 17.9342C13.0488 17.2083 13.0465 16.5116 13.0465 16.5116V6.05813C13.0465 5.11823 13.7926 4.37209 14.7325 4.37209Z" stroke="white" stroke-width="0.4" mask="url(#path-1-outside-1)"/>
</svg>
