<svg width="31" height="35" viewBox="0 0 31 35" fill="none" xmlns="http://www.w3.org/2000/svg">
<path d="M26.5181 21.885H21.0266C20.8895 21.885 20.7592 21.9467 20.6701 22.0495C20.581 22.1524 20.5467 22.2964 20.5741 22.4266C20.6427 22.7625 20.6701 23.0985 20.6701 23.4413C20.6701 26.3344 18.3186 28.6859 15.4186 28.6859C12.5255 28.6859 10.1671 26.3344 10.1671 23.4413C10.1671 23.1053 10.2014 22.7625 10.2631 22.4266C10.2905 22.2895 10.2562 22.1524 10.1671 22.0495C10.078 21.9467 9.94773 21.885 9.81061 21.885H4.33287C4.07921 21.885 3.87354 22.0907 3.87354 22.3443V24.5725C3.87354 24.8261 4.07921 25.0318 4.33287 25.0318H5.87541C5.97825 25.6488 6.14279 26.2521 6.36217 26.8417L5.0253 27.6096C4.80592 27.733 4.7305 28.014 4.86076 28.2334L5.99196 30.1942C6.05366 30.297 6.14964 30.3793 6.27305 30.4067C6.38959 30.441 6.513 30.4204 6.62269 30.3587L7.95956 29.5909C8.35719 30.0708 8.80282 30.5164 9.28272 30.914L8.50116 32.2509C8.43946 32.3537 8.42575 32.484 8.45317 32.6005C8.48745 32.7171 8.56287 32.8199 8.6657 32.8816L10.6264 34.0128C10.8458 34.1362 11.1269 34.0677 11.2503 33.8483L12.0182 32.5183C12.6009 32.7377 13.2111 32.9022 13.8281 32.9982V34.5407C13.8281 34.7944 14.0338 35.0001 14.2874 35.0001H16.5498C16.8035 35.0001 17.0091 34.7944 17.0091 34.5407V32.9982C17.6262 32.8953 18.2363 32.7377 18.8191 32.5183L19.5869 33.8483C19.7103 34.0677 19.9914 34.1431 20.2108 34.0128L22.1715 32.8816C22.2744 32.8199 22.3566 32.7239 22.3841 32.6005C22.4183 32.484 22.3978 32.3606 22.3361 32.2509L21.5614 30.914C22.0413 30.5164 22.4869 30.0708 22.8845 29.5909L24.2214 30.3587C24.3242 30.4204 24.4545 30.4341 24.571 30.4067C24.6876 30.3724 24.7904 30.297 24.8521 30.1942L25.9833 28.2334C26.1067 28.014 26.0382 27.733 25.8188 27.6096L24.4819 26.8417C24.7013 26.259 24.8658 25.6488 24.9687 25.0318H26.5112C26.7649 25.0318 26.9705 24.8261 26.9705 24.5725V22.3443C26.9774 22.0907 26.7717 21.885 26.5181 21.885ZM26.0587 24.1131H24.5779C24.3448 24.1131 24.1528 24.2845 24.1254 24.5176C24.0294 25.3266 23.8169 26.115 23.5015 26.8623C23.4124 27.0748 23.4947 27.3216 23.6935 27.4382L24.9755 28.1786L24.3037 29.3441L23.0216 28.6036C22.8228 28.4871 22.5692 28.5419 22.4252 28.727C21.9316 29.3783 21.3557 29.9542 20.7113 30.441C20.5261 30.5781 20.4782 30.8386 20.5878 31.0374L21.3283 32.3195L20.1628 32.9913L19.4224 31.7093C19.3058 31.5105 19.059 31.4282 18.8465 31.5173C18.0992 31.8327 17.3108 32.0452 16.5018 32.1412C16.2687 32.1686 16.0973 32.3674 16.0973 32.5937V34.0745H14.7536V32.5868C14.7536 32.3537 14.5822 32.1618 14.3491 32.1344C13.5401 32.0384 12.7517 31.8258 12.0045 31.5105C11.7919 31.4214 11.5451 31.5036 11.4286 31.7024L10.6881 32.9845L9.52267 32.3126L10.2631 31.0306C10.3796 30.8318 10.3248 30.5781 10.1397 30.4341C9.48839 29.9474 8.91251 29.3646 8.42575 28.7202C8.28864 28.5351 8.02812 28.4871 7.8293 28.5968L6.54728 29.3372L5.87541 28.1717L7.15744 27.4313C7.35625 27.3148 7.43852 27.068 7.3494 26.8554C7.03403 26.1082 6.82151 25.3197 6.72553 24.5108C6.6981 24.2777 6.49929 24.1063 6.27305 24.1063H4.79221V22.79H9.29643C9.27586 23.0025 9.26215 23.215 9.26215 23.4276C9.26215 26.828 12.0319 29.5909 15.4323 29.5909C18.8328 29.5909 21.6025 26.828 21.6025 23.4276C21.6025 23.215 21.5888 23.0025 21.5682 22.79H26.0724V24.1131H26.0587Z" fill="white"/>
<path d="M29.5483 15.8313V15.1115C29.5483 12.0401 28.5131 9.07155 26.6346 6.74745C24.8589 4.55361 22.4457 3.05906 19.7925 2.50375C19.7788 2.05812 19.6143 1.63307 19.3195 1.30399C18.9836 0.920068 18.4968 0.700684 17.9963 0.700684H12.8614C12.3609 0.700684 11.881 0.920068 11.5382 1.30399C11.2434 1.63307 11.0789 2.05812 11.0652 2.50375C8.412 3.05221 5.99192 4.54676 4.22314 6.74745C3.43473 7.72783 2.79029 8.82474 2.31039 9.99022C2.29668 10.0176 2.28296 10.0451 2.27611 10.0725C1.89219 11.0323 1.61796 12.0469 1.46027 13.0822C1.45342 13.1164 1.44656 13.1439 1.44656 13.1781C1.35744 13.8157 1.30259 14.4602 1.30259 15.1115V15.8313C0.534748 16.2152 0 17.0105 0 17.9292C0 19.2249 1.05579 20.2807 2.35152 20.2807H28.4993C29.7951 20.2807 30.8509 19.2249 30.8509 17.9292C30.8509 17.0105 30.3161 16.2152 29.5483 15.8313ZM28.4993 19.362H2.35152C1.56311 19.362 0.91867 18.7176 0.91867 17.9292C0.91867 17.1408 1.56311 16.4963 2.35152 16.4963H6.70492C6.95858 16.4963 7.16426 16.2907 7.16426 16.037C7.16426 15.7833 6.95858 15.5777 6.70492 15.5777H2.35152C2.31039 15.5777 2.2624 15.5845 2.22126 15.5845V15.1115C2.22126 14.6179 2.24868 14.1311 2.30353 13.6512H6.36213C6.6158 13.6512 6.82147 13.4455 6.82147 13.1919C6.82147 12.9382 6.6158 12.7325 6.36213 12.7325H2.44065C2.5709 12.0195 2.76972 11.3271 3.01653 10.6621H5.67656C5.93022 10.6621 6.13589 10.4564 6.13589 10.2027C6.13589 9.94909 5.93022 9.74341 5.67656 9.74341H3.40045C4.895 6.54864 7.71272 4.16284 11.1749 3.42242L11.9838 8.01577C12.025 8.23515 12.2169 8.39283 12.4363 8.39283C12.4637 8.39283 12.4912 8.39283 12.5186 8.38598C12.7654 8.34484 12.9368 8.10489 12.8888 7.85808L11.9976 2.81911L11.9838 2.69571C11.9496 2.41462 12.0387 2.12668 12.2238 1.92101C12.3883 1.72905 12.6146 1.62621 12.8614 1.62621H17.9963C18.2363 1.62621 18.4625 1.72905 18.6339 1.92101C18.819 2.12668 18.9081 2.40777 18.8739 2.69571L18.8602 2.83282C18.8327 3.07277 18.9973 3.29901 19.2372 3.34015C24.6875 4.26567 28.6365 9.21552 28.6365 15.1183V15.5914C28.5953 15.5914 28.5473 15.5845 28.5062 15.5845H11.9838C11.7302 15.5845 11.5245 15.7902 11.5245 16.0438C11.5245 16.2975 11.7302 16.5032 11.9838 16.5032H28.5062C29.2946 16.5032 29.939 17.1476 29.939 17.936C29.9322 18.7176 29.2878 19.362 28.4993 19.362Z" fill="white"/>
</svg>
