<svg width="30" height="30" viewBox="0 0 30 30" fill="none" xmlns="http://www.w3.org/2000/svg">
<path d="M27.0416 6.77122C27.0532 6.77189 27.0649 6.77222 27.0766 6.77222C27.2566 6.77222 27.4236 6.67489 27.5119 6.51589L29.9376 2.14457C30.0452 1.95024 30.0116 1.70791 29.8542 1.55058L28.4496 0.145913C28.2926 -0.0110867 28.0499 -0.04542 27.8556 0.0625797L23.4843 2.48824C23.3153 2.58224 23.2156 2.76557 23.2293 2.95857L23.3406 4.5489L15.8373 12.0515L11.6053 7.81956C12.331 5.69723 11.7973 3.3459 10.1966 1.74524C8.61597 0.164913 6.31665 -0.385086 4.19499 0.310246C4.18732 0.312912 4.18065 0.316912 4.17332 0.319912C4.16565 0.322912 4.15865 0.326579 4.15099 0.329912C4.09565 0.354245 4.04665 0.386579 4.00532 0.426912C4.00299 0.428579 3.99999 0.429245 3.99799 0.431245C3.99499 0.434245 3.99432 0.437912 3.99165 0.440912C3.95065 0.483912 3.91799 0.532912 3.89465 0.586911C3.89132 0.594245 3.88899 0.601245 3.88599 0.608578C3.86632 0.660911 3.85532 0.715911 3.85399 0.772577C3.85365 0.780577 3.85399 0.787911 3.85432 0.795577C3.85565 0.842911 3.86099 0.89091 3.87665 0.938244C3.87932 0.94591 3.88332 0.952577 3.88632 0.95991C3.88932 0.967577 3.89299 0.974577 3.89632 0.982244C3.92065 1.03724 3.95299 1.08624 3.99299 1.12758C3.99532 1.12991 3.99565 1.13291 3.99799 1.13524L6.28365 3.42124C6.49865 3.6359 6.61698 3.9209 6.61698 4.2239C6.61698 4.52657 6.49931 4.8109 6.28531 5.0249L5.13898 6.17123C4.92532 6.38523 4.64099 6.50289 4.33865 6.50289H4.33832C4.03532 6.50289 3.75032 6.38423 3.53532 6.16956L1.24966 3.8839C1.24733 3.88157 1.24433 3.8809 1.242 3.8789C1.20066 3.8389 1.15166 3.80657 1.09666 3.78257C1.089 3.77923 1.08166 3.77557 1.07366 3.77257C1.066 3.76957 1.05933 3.76523 1.05166 3.7629C1.00466 3.74757 0.956997 3.7419 0.909664 3.74057C0.901664 3.74024 0.894331 3.7399 0.886331 3.74024C0.829664 3.74157 0.774664 3.75257 0.722664 3.77223C0.714998 3.77523 0.707664 3.7779 0.699998 3.78123C0.646331 3.80457 0.597665 3.8369 0.554998 3.87757C0.551998 3.88057 0.547665 3.88123 0.544665 3.88423C0.542332 3.88657 0.541665 3.88957 0.539665 3.8919C0.499998 3.93323 0.467999 3.9819 0.443665 4.0369C0.440332 4.0449 0.436332 4.0519 0.433332 4.0599C0.430332 4.06757 0.425999 4.0739 0.423665 4.0819C-0.269333 6.20489 0.280333 8.50455 1.85866 10.0829C2.98866 11.2129 4.49265 11.8125 6.02698 11.8125C6.66531 11.8125 7.30798 11.7019 7.93198 11.4889L10.779 14.3362C10.7136 14.3289 10.6493 14.3169 10.5823 14.3169C10.1093 14.3169 9.6643 14.5012 9.32997 14.8355L0.518665 23.6475C0.184333 23.9822 0 24.4268 0 24.8998C0 25.3728 0.184333 25.8175 0.518665 26.1522L3.84799 29.4815C4.18232 29.8155 4.62699 29.9998 5.10032 29.9998C5.57332 29.9998 6.01798 29.8155 6.35265 29.4812L15.1643 20.6695C15.4986 20.3352 15.683 19.8902 15.683 19.4172C15.683 19.3505 15.671 19.2859 15.6636 19.2205L18.5079 22.0648C17.7823 24.1885 18.3163 26.5405 19.9173 28.1412C21.0443 29.2685 22.5393 29.8712 24.0749 29.8712C24.6896 29.8712 25.3113 29.7745 25.9183 29.5762C25.9263 29.5735 25.9326 29.5692 25.9403 29.5665C25.9479 29.5635 25.9549 29.5598 25.9626 29.5565C26.0179 29.5322 26.0669 29.4998 26.1083 29.4598C26.1106 29.4578 26.1136 29.4572 26.1156 29.4548C26.1186 29.4518 26.1193 29.4482 26.1219 29.4452C26.1626 29.4022 26.1953 29.3535 26.2186 29.2995C26.2219 29.2922 26.2246 29.2848 26.2273 29.2775C26.2469 29.2255 26.2579 29.1705 26.2593 29.1135C26.2596 29.1055 26.2593 29.0982 26.2589 29.0902C26.2576 29.0428 26.2523 28.9952 26.2366 28.9482C26.2339 28.9405 26.2296 28.9338 26.2269 28.9262C26.2239 28.9185 26.2203 28.9112 26.2169 28.9035C26.1926 28.8482 26.1603 28.7992 26.1203 28.7578C26.1183 28.7558 26.1176 28.7528 26.1156 28.7505L23.8299 26.4648C23.3873 26.0222 23.3866 25.3025 23.8283 24.8608L24.9746 23.7145C25.4166 23.2728 26.1359 23.2738 26.5786 23.7162L28.8642 26.0018C28.8662 26.0038 28.8692 26.0045 28.8716 26.0065C28.9129 26.0465 28.9622 26.0792 29.0172 26.1035C29.0249 26.1068 29.0319 26.1105 29.0396 26.1135C29.0469 26.1165 29.0536 26.1205 29.0612 26.1232C29.1129 26.1402 29.1649 26.1482 29.2166 26.1482C29.2762 26.1482 29.3332 26.1348 29.3879 26.1145C29.4042 26.1085 29.4182 26.0992 29.4339 26.0915C29.4732 26.0722 29.5092 26.0485 29.5426 26.0192C29.5506 26.0122 29.5609 26.0095 29.5686 26.0018C29.5756 25.9948 29.5776 25.9855 29.5842 25.9785C29.6129 25.9465 29.6356 25.9108 29.6556 25.8712C29.6639 25.8542 29.6749 25.8392 29.6812 25.8215C29.6836 25.8155 29.6879 25.8108 29.6899 25.8048C30.3852 23.6832 29.8352 21.3835 28.2549 19.8032C26.6546 18.2029 24.3029 17.6692 22.1806 18.3945L17.9483 14.1625L25.4513 6.65956L27.0416 6.77122ZM8.42664 10.5745C8.28964 10.4292 8.07364 10.3742 7.87731 10.4539C6.04598 11.1972 3.96032 10.7755 2.56333 9.37855C1.45566 8.27089 0.960664 6.73589 1.17933 5.22256L2.83099 6.87422C3.23366 7.27689 3.76866 7.49889 4.33765 7.49922C4.33799 7.49922 4.33832 7.49922 4.33865 7.49922C4.90699 7.49922 5.44165 7.27789 5.84332 6.87589L6.98965 5.7299C7.39198 5.32756 7.61331 4.7929 7.61298 4.2239C7.61264 3.65524 7.39064 3.1199 6.98764 2.71724L5.33565 1.06491C6.84831 0.845244 8.38331 1.34058 9.4923 2.44957C10.886 3.84323 11.3086 5.92256 10.5713 7.74989C10.5666 7.76056 10.5646 7.77156 10.561 7.78289C10.5446 7.82956 10.5356 7.87655 10.5336 7.92389C10.5333 7.93422 10.531 7.94422 10.531 7.95456C10.5316 8.01022 10.5436 8.06456 10.5623 8.11622C10.565 8.12389 10.5663 8.13122 10.5693 8.13889C10.5936 8.19722 10.629 8.25089 10.6743 8.29655C10.6746 8.29689 10.6746 8.29722 10.675 8.29789L10.676 8.29889C10.6763 8.29922 10.6766 8.29955 10.6773 8.30022L15.133 12.7559L14.1513 13.7372C13.8693 13.5272 13.5326 13.4085 13.1753 13.4085C12.7366 13.4085 12.3236 13.5799 12.0113 13.8922L11.8776 14.0259L8.42664 10.5745ZM14.46 19.9652L5.64798 28.7768C5.35498 29.0695 4.84465 29.0692 4.55199 28.7768L1.22266 25.4475C1.07633 25.3012 0.995997 25.1065 0.995997 24.8995C0.995997 24.6925 1.07666 24.4982 1.22266 24.3515L10.0346 15.5399C10.181 15.3935 10.3756 15.3129 10.5826 15.3129C10.7886 15.3129 10.9826 15.3932 11.1286 15.5382L14.4596 18.8692C14.606 19.0155 14.6866 19.2099 14.6866 19.4169C14.6866 19.6242 14.6063 19.8185 14.46 19.9652ZM15.403 17.2839L14.8446 17.8452L12.158 15.1582L12.2293 15.0865C12.2303 15.0855 12.2316 15.0852 12.2326 15.0845C12.2336 15.0835 12.234 15.0822 12.235 15.0812L12.718 14.5952C12.964 14.3492 13.389 14.3495 13.6346 14.5952L13.816 14.7765C13.816 14.7765 13.816 14.7769 13.8163 14.7769L15.223 16.1835L15.405 16.3655C15.528 16.4885 15.5956 16.6512 15.5956 16.8239C15.595 16.9969 15.5273 17.1595 15.403 17.2839ZM21.6989 19.3222C21.6996 19.3229 21.7003 19.3235 21.7009 19.3242L21.7019 19.3252C21.7023 19.3255 21.7026 19.3255 21.7029 19.3259C21.7486 19.3709 21.8026 19.4065 21.8609 19.4309C21.8683 19.4342 21.8759 19.4352 21.8836 19.4379C21.9349 19.4565 21.9889 19.4682 22.0446 19.4692C22.0479 19.4692 22.0509 19.4712 22.0543 19.4712C22.0619 19.4712 22.0696 19.4672 22.0773 19.4669C22.1239 19.4645 22.1709 19.4559 22.2169 19.4395C22.2279 19.4355 22.2389 19.4339 22.2499 19.4292C24.0773 18.6922 26.1569 19.1149 27.5506 20.5082C28.6596 21.6172 29.1552 23.1525 28.9356 24.6648L27.2832 23.0125C26.4526 22.1818 25.1009 22.1805 24.2706 23.0108L23.1243 24.1572C22.2943 24.9872 22.2949 26.3388 23.1259 27.1698L24.7776 28.8212C23.2643 29.0398 21.7296 28.5448 20.6216 27.4372C19.2249 26.0402 18.8026 23.9545 19.5463 22.1232C19.6259 21.9272 19.5709 21.7108 19.4256 21.5742L15.9736 18.1219L16.1086 17.9869C16.4196 17.6759 16.5909 17.2629 16.5909 16.8242C16.5909 16.4672 16.4723 16.1302 16.2623 15.8485L17.2439 14.8669L21.6989 19.3222ZM25.2673 5.65056C25.2616 5.65056 25.2559 5.65056 25.2503 5.6509C25.1113 5.6509 24.9853 5.7099 24.8956 5.80689L15.5746 15.1275L14.8723 14.4252L24.2049 5.0929C24.2056 5.09223 24.2059 5.0909 24.2069 5.09023C24.2509 5.04523 24.2863 4.99256 24.3106 4.9339C24.3119 4.93056 24.3139 4.92723 24.3153 4.92356C24.3363 4.87023 24.3473 4.8129 24.3486 4.7529C24.3489 4.7459 24.3493 4.7389 24.3493 4.7319C24.3493 4.72357 24.3506 4.7159 24.3499 4.70756L24.2446 3.20524L28.0102 1.11591L28.8839 1.98957L26.7946 5.75523L25.2923 5.65023C25.2839 5.64923 25.2756 5.6509 25.2673 5.65056Z" fill="white"/>
</svg>
